<svg xmlns="http://www.w3.org/2000/svg" version="1.1" xmlns:xlink="http://www.w3.org/1999/xlink" xmlns:svgjs="http://svgjs.dev/svgjs" width="1000" height="623" viewBox="0 0 1000 623"><g transform="matrix(1,0,0,1,-0.606060481128452,0.2522267206477409)"><svg viewBox="0 0 396 247" data-background-color="#ffffff" preserveAspectRatio="xMidYMid meet" height="623" width="1000" xmlns="http://www.w3.org/2000/svg" xmlns:xlink="http://www.w3.org/1999/xlink"><g id="tight-bounds" transform="matrix(1,0,0,1,0.24000004947311027,-0.09999999999999432)"><svg viewBox="0 0 395.52 247.2" height="247.2" width="395.52"><g><svg viewBox="0 0 395.52 247.2" height="247.2" width="395.52"><g transform="matrix(1,0,0,1,0,97.66426229508197)"><svg viewBox="0 0 395.52 51.87147540983606" height="51.87147540983606" width="395.52"><g><svg viewBox="0 0 395.52 51.87147540983606" height="51.87147540983606" width="395.52"><g><svg viewBox="0 0 395.52 51.87147540983606" height="51.87147540983606" width="395.52"><g id="textblocktransform"><svg viewBox="0 0 395.52 51.87147540983606" height="51.87147540983606" width="395.52" id="textblock"><g><svg viewBox="0 0 395.52 51.87147540983606" height="51.87147540983606" width="395.52"><g transform="matrix(1,0,0,1,0,0)"><svg width="395.52" viewBox="3.930000066757202 -35 266.8500061035156 35" height="51.87147540983606" data-palette-color="#7eaf50"><path d="M9.38 0L3.93 0 3.93-35 9.38-35 9.38-20.8 26.43-20.8 26.43-35 31.88-35 31.88 0 26.43 0 26.43-15.68 9.38-15.68 9.38 0ZM62 0L39.72 0 39.72-35 61.52-35 61.52-29.9 45.25-29.9 45.25-20.83 58.07-20.83 58.07-15.73 45.25-15.73 45.25-5.1 62-5.1 62 0ZM86.72-13.83L86.72-8.95 71.87-8.95 71.87-13.83 86.72-13.83ZM89.02 0L78.55-29.68 80.05-29.68 69.57 0 64.07 0 76.57-35 82.02-35 94.52 0 89.02 0ZM119.52 0L98.72 0 98.72-35 104.17-35 104.17-4.9 119.52-4.9 119.52 0ZM132.87 0L127.42 0 127.42-29.9 117.34-29.9 117.34-35 142.94-35 142.94-29.9 132.87-29.9 132.87 0ZM153.06 0L147.61 0 147.61-35 153.06-35 153.06-20.8 170.11-20.8 170.11-35 175.56-35 175.56 0 170.11 0 170.11-15.68 153.06-15.68 153.06 0ZM197.21 0L183.41 0 183.41-35 195.39-35Q200.24-35 202.82-32.86 205.41-30.73 205.41-26.5L205.41-26.5Q205.41-23.5 204.09-21.35 202.76-19.2 200.11-18.4L200.11-18.4 200.54-19.38Q204.41-18.65 206.44-16.3 208.46-13.95 208.46-9.98L208.46-9.98Q208.46-5.33 205.46-2.66 202.46 0 197.21 0L197.21 0ZM188.86-15.9L188.86-4.9 196.59-4.9Q199.36-4.9 201.02-6.19 202.69-7.48 202.69-10.35L202.69-10.35Q202.69-13.48 200.97-14.69 199.26-15.9 196.59-15.9L196.59-15.9 188.86-15.9ZM188.86-30.13L188.86-20.8 194.64-20.8Q197.09-20.8 198.5-21.79 199.91-22.78 199.91-25.45L199.91-25.45Q199.91-28.15 198.5-29.14 197.09-30.13 194.64-30.13L194.64-30.13 188.86-30.13ZM232.88-13.83L232.88-8.95 218.03-8.95 218.03-13.83 232.88-13.83ZM235.18 0L224.71-29.68 226.21-29.68 215.73 0 210.23 0 222.73-35 228.18-35 240.68 0 235.18 0ZM250.48 0L244.88 0 244.88-35 256.86-35Q260.51-35 263.22-33.86 265.93-32.73 267.43-30.38 268.93-28.03 268.93-24.38L268.93-24.38Q268.93-20.68 267.34-18.31 265.76-15.95 262.91-14.58L262.91-14.58 270.78 0 264.41 0 257.46-13.38Q257.38-13.38 257.33-13.38 257.28-13.38 257.21-13.38L257.21-13.38 250.48-13.38 250.48 0ZM250.48-30.28L250.48-18.1 256.11-18.1Q259.83-18.1 261.54-19.78 263.26-21.45 263.26-24.23L263.26-24.23Q263.26-27.1 261.56-28.69 259.86-30.28 256.21-30.28L256.21-30.28 250.48-30.28Z" opacity="1" transform="matrix(1,0,0,1,0,0)" fill="#ffffff" class="undefined-text-0" data-fill-palette-color="primary" id="text-0"></path></svg></g></svg></g></svg></g></svg></g></svg></g></svg></g></svg></g><defs><mask id="42b6d316-f244-45dc-a30b-37d89f456c54"><rect width="640" height="400" fill="white"></rect><rect width="348.05760000000004" height="61.09015701403279" fill="black" y="93.0549214929836" x="23.731199999999973" id="transform-me"></rect></mask><mask id="9669da39-37cc-4299-9ce5-3ddbf0f1ef8e"><rect width="640" height="400" fill="white"></rect><rect width="348.05760000000004" height="61.09015701403279" fill="black" y="93.0549214929836" x="23.731199999999973" id="transform-me"></rect></mask><mask id="b39c9a21-4c82-46ae-b067-3d0d4374bec2"><rect width="640" height="400" fill="white"></rect><rect width="348.05760000000004" height="61.09015701403279" fill="black" y="93.0549214929836" x="23.731199999999973" id="transform-me"></rect></mask><mask id="62ab6aca-3689-4f88-80f4-3b57e2e3f7eb"><rect width="640" height="400" fill="white"></rect><rect width="348.05760000000004" height="61.09015701403279" fill="black" y="93.0549214929836" x="23.731199999999973" id="transform-me"></rect></mask><mask id="2167788f-7001-4fda-873f-fb397599203d"><rect width="640" height="400" fill="white"></rect><rect width="348.05760000000004" height="61.09015701403279" fill="black" y="93.0549214929836" x="23.731199999999973" id="transform-me"></rect></mask><mask id="e05402c2-8dae-4634-83f5-b1ad84af1a35"><rect width="640" height="400" fill="white"></rect><rect width="348.05760000000004" height="61.09015701403279" fill="black" y="93.0549214929836" x="23.731199999999973" id="transform-me"></rect></mask><mask id="cc3da0aa-726b-4c87-a360-c33fdc3ee8b7"><rect width="640" height="400" fill="white"></rect><rect width="348.05760000000004" height="61.09015701403279" fill="black" y="93.0549214929836" x="23.731199999999973" id="transform-me"></rect></mask><mask id="9052f497-a9bf-4116-842c-7a244bcbfade"><rect width="640" height="400" fill="white"></rect><rect width="348.05760000000004" height="61.09015701403279" fill="black" y="93.0549214929836" x="23.731199999999973" id="transform-me"></rect></mask><mask id="7c3e81fc-45c8-4928-bfbe-929b1af8ba7b"><rect width="640" height="400" fill="white"></rect><rect width="348.05760000000004" height="61.09015701403279" fill="black" y="93.0549214929836" x="23.731199999999973" id="transform-me"></rect></mask><mask id="fd3968f2-94d0-4668-bab4-ce0eebdd72dc"><rect width="640" height="400" fill="white"></rect><rect width="232.0384" height="40.72677134268852" fill="black" y="103.23661432865573" x="81.7408" id="transform-me"></rect></mask><mask id="34dc1213-7283-4650-9da6-17b036794be0"><rect width="640" height="400" fill="white"></rect><rect width="435.072" height="76.36269626754097" fill="black" y="85.41865186622951" x="-19.77600000000001" id="transform-me"></rect></mask><mask id="6465c831-9cf2-4b90-8a52-48248f7073ef"><rect width="640" height="400" fill="white"></rect><rect width="348.05760000000004" height="61.09015701403279" fill="black" y="93.0549214929836" x="23.731199999999973" id="transform-me"></rect></mask><mask id="be2b4ddd-e9ee-4a03-abdc-d30064880363"><rect width="640" height="400" fill="white"></rect><rect width="232.0384" height="40.72677134268852" fill="black" y="103.23661432865573" x="81.7408" id="transform-me"></rect></mask><mask id="81f1580a-ee85-4b5c-9dea-3053a3c33f0a"><rect width="640" height="400" fill="white"></rect><rect width="174.02880000000002" height="30.545078507016395" fill="black" y="108.3274607464918" x="110.74559999999998" id="transform-me"></rect></mask><mask id="68d1f404-3cfc-4073-ac42-e873140996cb"><rect width="640" height="400" fill="white"></rect><rect width="435.072" height="76.36269626754097" fill="black" y="85.41865186622951" x="-19.77600000000001" id="transform-me"></rect></mask><mask id="dc39fa6d-d342-40c1-97de-cf7483f04d51"><rect width="640" height="400" fill="white"></rect><rect width="348.05760000000004" height="61.09015701403279" fill="black" y="93.0549214929836" x="23.731199999999973" id="transform-me"></rect></mask><mask id="03da4c46-6f3f-4bf2-ae78-f74052dc3072"><rect width="640" height="400" fill="white"></rect><rect width="232.0384" height="40.72677134268852" fill="black" y="103.23661432865573" x="81.7408" id="transform-me"></rect></mask><mask id="e4cf9d50-6312-4f58-ae66-44196c63f623"><rect width="640" height="400" fill="white"></rect><rect width="435.072" height="76.36269626754097" fill="black" y="85.41865186622951" x="-19.77600000000001" id="transform-me"></rect></mask><mask id="4d5ef556-0ada-47ee-a6db-25faf2379d0e"><rect width="640" height="400" fill="white"></rect><rect width="435.072" height="76.36269626754097" fill="black" y="85.41865186622951" x="-19.77600000000001" id="transform-me"></rect></mask><mask id="e0f525e9-7c13-48ba-8dfb-49b00d3619d7"><rect width="640" height="400" fill="white"></rect><rect width="435.072" height="76.36269626754097" fill="black" y="85.41865186622951" x="-19.77600000000001" id="transform-me"></rect></mask><mask id="0df04d44-20ae-42c0-af96-bd860e7282dd"><rect width="640" height="400" fill="white"></rect><rect width="435.072" height="76.36269626754097" fill="black" y="85.41865186622951" x="-19.77600000000001" id="transform-me"></rect></mask><mask id="4cc275cc-766f-4a57-9043-a2174299bc31"><rect width="640" height="400" fill="white"></rect><rect width="435.072" height="76.36269626754097" fill="black" y="85.41865186622951" x="-19.77600000000001" id="transform-me"></rect></mask><mask id="6559093b-5ba3-420f-97bb-f0dde3e6ecbd"><rect width="640" height="400" fill="white"></rect><rect width="435.072" height="76.36269626754097" fill="black" y="85.41865186622951" x="-19.77600000000001" id="transform-me"></rect></mask><mask id="9b919af8-e3ff-4c82-92e3-b60b2b4a6f3d"><rect width="640" height="400" fill="white"></rect><rect width="435.072" height="76.36269626754097" fill="black" y="85.41865186622951" x="-19.77600000000001" id="transform-me"></rect></mask><mask id="1158d5ce-d142-4053-830f-bbe761a564a9"><rect width="640" height="400" fill="white"></rect><rect width="232.0384" height="40.72677134268852" fill="black" y="103.23661432865573" x="81.7408" id="transform-me"></rect></mask><mask id="81b98b55-6118-4e18-a613-24b8e6eac916"><rect width="640" height="400" fill="white"></rect><rect width="348.05760000000004" height="61.09015701403279" fill="black" y="93.0549214929836" x="23.731199999999973" id="transform-me"></rect></mask><mask id="6902c12a-78f2-49db-b7f5-a9284e354093"><rect width="640" height="400" fill="white"></rect><rect width="435.072" height="76.36269626754097" fill="black" y="85.41865186622951" x="-19.77600000000001" id="transform-me"></rect></mask><mask id="4e1d0bab-ed2a-4acf-9fa4-4a456988f553"><rect width="640" height="400" fill="white"></rect><rect width="174.02880000000002" height="30.545078507016395" fill="black" y="108.3274607464918" x="110.74559999999998" id="transform-me"></rect></mask><mask id="a9e8f647-1362-42a0-a861-ff9a04c252ec"><rect width="640" height="400" fill="white"></rect><rect width="232.0384" height="40.72677134268852" fill="black" y="103.23661432865573" x="81.7408" id="transform-me"></rect></mask><mask id="684b8b0e-3199-4bb5-960a-954b431ab9f5"><rect width="640" height="400" fill="white"></rect><rect width="348.05760000000004" height="61.09015701403279" fill="black" y="93.0549214929836" x="23.731199999999973" id="transform-me"></rect></mask><mask id="7a2cec2d-db32-444d-8760-10b1f05cfe40"><rect width="640" height="400" fill="white"></rect><rect width="348.05760000000004" height="61.09015701403279" fill="black" y="93.0549214929836" x="23.731199999999973" id="transform-me"></rect></mask></defs></svg><rect width="395.52" height="247.2" fill="none" stroke="none" visibility="hidden"></rect></g></svg></g></svg>