<svg xmlns="http://www.w3.org/2000/svg" version="1.1" xmlns:xlink="http://www.w3.org/1999/xlink" xmlns:svgjs="http://svgjs.dev/svgjs" width="1000" height="123" viewBox="0 0 1000 123"><g transform="matrix(1,0,0,1,-0.606048679392643,-0.3135978631627978)"><svg viewBox="0 0 396 49" data-background-color="#ffffff" preserveAspectRatio="xMidYMid meet" height="123" width="1000" xmlns="http://www.w3.org/2000/svg" xmlns:xlink="http://www.w3.org/1999/xlink"><g id="tight-bounds" transform="matrix(1,0,0,1,0.23999540003325137,0.12493123507584869)"><svg viewBox="0 0 395.52 48.75013953488372" height="48.75013953488372" width="395.52"><g><svg viewBox="0 0 395.52 48.75013953488372" height="48.75013953488372" width="395.52"><g><svg viewBox="0 0 395.52 48.75013953488372" height="48.75013953488372" width="395.52"><g><svg viewBox="0 0 395.52 48.75013953488372" height="48.75013953488372" width="395.52"><g><svg viewBox="0 0 395.52 48.75013953488372" height="48.75013953488372" width="395.52"><g transform="matrix(1,0,0,1,0,0)"><svg width="395.52" viewBox="4.400000095367432 -37.099998474121094 306.67999267578125 37.099998474121094" height="48.75013953488372" data-palette-color="#7eaf50"><g class="undefined-text-0" data-fill-palette-color="primary" id="text-0"><path d="M26-16.9L10.95-16.9Q10.45-16.9 10.45-16.4L10.45-16.4 10.45-0.85Q10.45 0 9.5 0L9.5 0 5.25 0Q4.75 0 4.58-0.2 4.4-0.4 4.4-0.8L4.4-0.8 4.4-36.35Q4.4-37.1 5.1-37.1L5.1-37.1 9.8-37.1Q10.45-37.1 10.45-36.35L10.45-36.35 10.45-22.3Q10.45-21.6 11.1-21.6L11.1-21.6 25.95-21.6Q26.55-21.6 26.55-22.25L26.55-22.25 26.55-36.4Q26.55-37.1 27.15-37.1L27.15-37.1 31.95-37.1Q32.6-37.1 32.6-36.35L32.6-36.35 32.6-0.8Q32.6-0.4 32.43-0.2 32.25 0 31.75 0L31.75 0 27.55 0Q26.55 0 26.55-0.85L26.55-0.85 26.55-16.35Q26.55-16.9 26-16.9L26-16.9ZM41.4-36.35L41.4-36.35Q41.4-37.1 42.1-37.1L42.1-37.1 65.4-37.1Q66-37.1 66-36.45L66-36.45 65.95-33.3Q65.95-32.55 65.2-32.55L65.2-32.55 48.2-32.55Q47.45-32.55 47.45-31.9L47.45-31.9 47.45-21.6Q47.45-20.95 48.1-20.95L48.1-20.95 60.3-20.95Q60.95-20.95 60.95-20.35L60.95-20.35 60.95-17Q60.95-16.75 60.82-16.6 60.7-16.45 60.3-16.45L60.3-16.45 48.05-16.45Q47.45-16.45 47.45-15.9L47.45-15.9 47.45-5.1Q47.45-4.55 47.95-4.55L47.95-4.55 65.9-4.55Q66.6-4.55 66.6-3.95L66.6-3.95 66.6-0.65Q66.6-0.35 66.45-0.18 66.3 0 65.9 0L65.9 0 42.25 0Q41.4 0 41.4-0.8L41.4-0.8 41.4-36.35ZM71.45 0L71.45 0Q71.09 0 70.95-0.3 70.8-0.6 70.95-1.05L70.95-1.05 83.7-36.3Q83.84-36.75 84.09-36.93 84.34-37.1 84.8-37.1L84.8-37.1 89.84-37.1Q90.8-37.1 91.09-36.25L91.09-36.25 103.75-1Q103.9-0.65 103.75-0.33 103.59 0 103.19 0L103.19 0 98.5 0Q97.84 0 97.65-0.6L97.65-0.6 94.45-9.5Q94.4-9.75 94.27-9.85 94.15-9.95 93.84-9.95L93.84-9.95 80-9.95Q79.55-9.95 79.4-9.55L79.4-9.55 76.14-0.5Q76.05-0.25 75.87-0.13 75.7 0 75.3 0L75.3 0 71.45 0ZM81.4-14.65L92.3-14.65Q92.95-14.65 92.7-15.35L92.7-15.35 87.3-30.35Q87.09-30.75 86.92-30.75 86.75-30.75 86.59-30.3L86.59-30.3 81.05-15.3Q80.8-14.65 81.4-14.65L81.4-14.65ZM110.24-36.35L110.24-36.35Q110.24-37.1 110.94-37.1L110.94-37.1 115.64-37.1Q116.29-37.1 116.29-36.35L116.29-36.35 116.29-5.1Q116.29-4.55 116.79-4.55L116.79-4.55 133.69-4.55Q134.39-4.55 134.39-3.95L134.39-3.95 134.39-0.65Q134.39-0.35 134.22-0.18 134.04 0 133.69 0L133.69 0 111.09 0Q110.59 0 110.42-0.2 110.24-0.4 110.24-0.8L110.24-0.8 110.24-36.35ZM138.29-33.2L138.29-36.4Q138.29-36.75 138.47-36.93 138.64-37.1 139.04-37.1L139.04-37.1 166.49-37.1Q166.89-37.1 167.04-36.93 167.19-36.75 167.19-36.4L167.19-36.4 167.19-33.2Q167.19-32.6 166.49-32.6L166.49-32.6 156.59-32.6Q156.04-32.6 156.04-32.15L156.04-32.15 156.04-0.75Q156.04 0 155.39 0L155.39 0 150.69 0Q150.04 0 150.04-0.7L150.04-0.7 150.04-32.05Q150.04-32.6 149.49-32.6L149.49-32.6 138.99-32.6Q138.29-32.6 138.29-33.2L138.29-33.2ZM195.14-16.9L180.09-16.9Q179.59-16.9 179.59-16.4L179.59-16.4 179.59-0.85Q179.59 0 178.64 0L178.64 0 174.39 0Q173.89 0 173.71-0.2 173.54-0.4 173.54-0.8L173.54-0.8 173.54-36.35Q173.54-37.1 174.24-37.1L174.24-37.1 178.94-37.1Q179.59-37.1 179.59-36.35L179.59-36.35 179.59-22.3Q179.59-21.6 180.24-21.6L180.24-21.6 195.09-21.6Q195.69-21.6 195.69-22.25L195.69-22.25 195.69-36.4Q195.69-37.1 196.29-37.1L196.29-37.1 201.09-37.1Q201.74-37.1 201.74-36.35L201.74-36.35 201.74-0.8Q201.74-0.4 201.56-0.2 201.39 0 200.89 0L200.89 0 196.69 0Q195.69 0 195.69-0.85L195.69-0.85 195.69-16.35Q195.69-16.9 195.14-16.9L195.14-16.9ZM211.29 0L211.29 0Q210.94 0 210.74-0.2 210.54-0.4 210.54-0.7L210.54-0.7 210.54-36.25Q210.54-36.65 210.76-36.88 210.99-37.1 211.34-37.1L211.34-37.1 223.49-37.1Q230.39-37.1 234.09-34.65 237.79-32.2 237.79-27.45L237.79-27.45Q237.79-24.5 236.24-22.5 234.69-20.5 231.24-19.2L231.24-19.2Q231.04-19.15 231.04-18.98 231.04-18.8 231.24-18.75L231.24-18.75Q234.94-17.75 236.81-15.63 238.69-13.5 238.69-9.95L238.69-9.95Q238.69-4.9 234.91-2.45 231.14 0 223.94 0L223.94 0 211.29 0ZM217.14-4.25L223.69-4.25Q228.09-4.25 230.24-5.78 232.39-7.3 232.39-10.3L232.39-10.3Q232.39-12.5 231.31-13.88 230.24-15.25 228.39-15.9 226.54-16.55 224.19-16.55L224.19-16.55 217.39-16.55Q216.59-16.55 216.59-15.9L216.59-15.9 216.59-5Q216.59-4.25 217.14-4.25L217.14-4.25ZM217.14-20.95L224.19-20.95Q225.59-20.95 226.91-21.23 228.24-21.5 229.34-22.18 230.44-22.85 231.09-23.98 231.74-25.1 231.74-26.75L231.74-26.75Q231.74-29.8 229.51-31.33 227.29-32.85 223.59-32.85L223.59-32.85 217.34-32.85Q216.59-32.85 216.59-32.2L216.59-32.2 216.59-21.65Q216.59-20.95 217.14-20.95L217.14-20.95ZM244.13 0L244.13 0Q243.78 0 243.63-0.3 243.48-0.6 243.63-1.05L243.63-1.05 256.38-36.3Q256.53-36.75 256.78-36.93 257.03-37.1 257.48-37.1L257.48-37.1 262.53-37.1Q263.48-37.1 263.78-36.25L263.78-36.25 276.43-1Q276.58-0.65 276.43-0.33 276.28 0 275.88 0L275.88 0 271.18 0Q270.53 0 270.33-0.6L270.33-0.6 267.13-9.5Q267.08-9.75 266.96-9.85 266.83-9.95 266.53-9.95L266.53-9.95 252.68-9.95Q252.23-9.95 252.08-9.55L252.08-9.55 248.83-0.5Q248.73-0.25 248.56-0.13 248.38 0 247.98 0L247.98 0 244.13 0ZM254.08-14.65L264.98-14.65Q265.63-14.65 265.38-15.35L265.38-15.35 259.98-30.35Q259.78-30.75 259.61-30.75 259.43-30.75 259.28-30.3L259.28-30.3 253.73-15.3Q253.48-14.65 254.08-14.65L254.08-14.65ZM310.58-1.05L310.58-1.05Q310.73-0.65 310.56-0.33 310.38 0 309.98 0L309.98 0 305.13 0Q304.53 0 304.23-0.7L304.23-0.7 298.13-15.9Q297.88-16.5 296.88-16.5L296.88-16.5 289.58-16.5Q289.23-16.5 289.11-16.32 288.98-16.15 288.98-15.95L288.98-15.95 288.98-0.9Q288.98 0 288.03 0L288.03 0 283.78 0Q283.28 0 283.11-0.2 282.93-0.4 282.93-0.8L282.93-0.8 282.93-36.35Q282.93-37.1 283.63-37.1L283.63-37.1 298.08-37.1Q304.23-37.1 307.66-34.6 311.08-32.1 311.08-27.3L311.08-27.3Q311.08-24.55 310.03-22.58 308.98-20.6 307.36-19.38 305.73-18.15 303.88-17.6L303.88-17.6Q303.53-17.45 303.68-17L303.68-17 310.58-1.05ZM296.88-20.75L296.88-20.75Q300.78-20.75 302.81-22.23 304.83-23.7 304.83-26.85L304.83-26.85Q304.83-29.85 302.98-31.35 301.13-32.85 297.73-32.85L297.73-32.85 289.78-32.85Q288.98-32.85 288.98-32.25L288.98-32.25 288.98-21.45Q288.98-20.75 289.53-20.75L289.53-20.75 296.88-20.75Z" fill="#7eaf50" data-fill-palette-color="primary"></path></g></svg></g></svg></g></svg></g></svg></g></svg></g><defs></defs></svg><rect width="395.52" height="48.75013953488372" fill="none" stroke="none" visibility="hidden"></rect></g></svg></g></svg>