<?xml version="1.0" standalone="no"?>
<!DOCTYPE svg PUBLIC "-//W3C//DTD SVG 20010904//EN"
 "http://www.w3.org/TR/2001/REC-SVG-20010904/DTD/svg10.dtd">
<svg version="1.0" xmlns="http://www.w3.org/2000/svg"
 width="128.000000pt" height="128.000000pt" viewBox="0 0 128.000000 128.000000"
 preserveAspectRatio="xMidYMid meet">
<metadata>
Created by potrace 1.14, written by Peter Selinger 2001-2017
</metadata>
<g transform="translate(0.000000,128.000000) scale(0.100000,-0.100000)"
fill="#000000" stroke="none">
<path d="M293 1102 l-23 -3 0 -462 0 -462 47 2 c27 0 60 2 76 2 l27 1 0 205 0
205 230 0 230 0 2 -207 3 -207 60 1 c33 1 63 2 68 2 4 1 7 208 7 461 l0 460
-70 0 -70 0 0 -185 c0 -185 0 -185 -22 -186 -13 -1 -115 -1 -228 -2 l-205 0
-5 189 -5 189 -50 0 c-27 0 -60 -1 -72 -3z"/>
</g>
</svg>
